/home/minht/3dpredictsim_tutorial/predsim_tutorial/Results/Case_15/GRF.mot
version=1
nRows=25
nColumns=19
inDegrees=yes
endheader 
time	r_ground_force_vx	r_ground_force_vy	r_ground_force_vz	r_ground_force_px	r_ground_force_py	r_ground_force_pz	l_ground_force_vx	l_ground_force_vy	l_ground_force_vz	l_ground_force_px	l_ground_force_py	l_ground_force_pz	r_ground_torque_x	r_ground_torque_y	r_ground_torque_z	l_ground_torque_x	l_ground_torque_y	l_ground_torque_z	
          0.00000000	         -0.04481083	        153.67978018	        -14.20286703	         -1.21387027	          0.00000000	          0.28328257	         74.24257005	        814.26044591	        -14.68841186	          0.02828288	          0.00000000	         -0.00699677	          0.00000000	         22.46726106	          0.00000000	          0.00000000	          2.23506559	          0.00000000	
          0.03380463	        -30.10682531	        349.99720773	         -5.15411639	         -0.43375624	          0.00000000	          0.10913552	         67.61749428	        707.36422723	         -8.98637747	          0.07532030	          0.00000000	         -0.01806257	          0.00000000	          9.64380820	          0.00000000	          0.00000000	          2.49566881	          0.00000000	
          0.06760925	        -64.70683287	        541.34662770	          3.13063582	         -0.21382357	          0.00000000	          0.05851640	         57.87499623	        574.51776888	         -5.14626520	          0.15308690	          0.00000000	         -0.03668792	          0.00000000	          5.95102036	          0.00000000	          0.00000000	          3.66631338	          0.00000000	
          0.10141388	        -83.27405426	        667.59166525	          6.24724727	         -0.11835211	          0.00000000	          0.03704606	         38.68810836	        421.92075613	         -2.14630928	          0.27406419	          0.00000000	         -0.06416055	          0.00000000	          4.27992660	          0.00000000	          0.00000000	          4.13663891	          0.00000000	
          0.13521850	        -90.14937164	        753.19533864	          7.83159081	         -0.06294900	          0.00000000	          0.02425641	         18.38942318	        281.85877915	          1.18424787	          0.49496509	          0.00000000	         -0.10475102	          0.00000000	          3.18327087	          0.00000000	          0.00000000	          3.62133545	          0.00000000	
          0.16902313	        -86.95002085	        793.20580854	          8.79231992	         -0.03809542	          0.00000000	          0.01760183	          8.44262046	        196.60772589	          2.29254921	          0.78536680	          0.00000000	         -0.15389675	          0.00000000	          2.24230855	          0.00000000	          0.00000000	          3.42820708	          0.00000000	
          0.20282775	        -76.10286333	        807.99500997	          9.25219290	         -0.02660675	          0.00000000	          0.01297542	          3.31939188	        143.24295948	          5.55519313	          1.13475961	          0.00000000	         -0.21293940	          0.00000000	          1.81989581	          0.00000000	          0.00000000	          6.71223936	          0.00000000	
          0.23663238	        -62.88883487	        827.56176897	          9.01854507	         -0.01610589	          0.00000000	          0.00835271	         -6.06729245	         90.77089418	          7.46490578	          1.87973482	          0.00000000	         -0.34464261	          0.00000000	          0.93988441	          0.00000000	          0.00000000	         11.02398351	          0.00000000	
          0.27043701	        -48.85884368	        858.81747428	         13.82757987	         -0.00547106	          0.00000000	          0.00311612	        -16.37536658	         33.00955172	          2.34700106	          5.47456535	          0.00000000	         -0.99093206	          0.00000000	         -0.96354077	          0.00000000	          0.00000000	         -5.75996009	          0.00000000	
          0.30424163	        -36.81627301	        885.51665913	         15.47886008	         -0.00052782	          0.00000000	          0.00032593	          0.00000000	          0.00000000	          0.00000000	          0.00000000	          0.00000000	          0.00000000	          0.00000000	         -0.33025079	          0.00000000	          0.00000000	          0.00000000	          0.00000000	
          0.33804626	        -25.41905897	        890.98291356	         16.77701304	         -0.00006708	          0.00000000	          0.00006023	          0.00000000	          0.00000000	          0.00000000	          0.00000000	          0.00000000	          0.00000000	          0.00000000	         -0.07814783	          0.00000000	          0.00000000	          0.00000000	          0.00000000	
          0.37185088	        -16.31335525	        892.50201195	         17.71652712	         -0.00001166	          0.00000000	          0.00002097	          0.00000000	          0.00000000	          0.00000000	          0.00000000	          0.00000000	          0.00000000	          0.00000000	         -0.03027738	          0.00000000	          0.00000000	          0.00000000	          0.00000000	
          0.40565551	         -9.81434761	        899.92757713	         18.70857229	          0.00000375	          0.00000000	          0.00002228	          0.00000000	          0.00000000	          0.00000000	          0.00000000	          0.00000000	          0.00000000	          0.00000000	         -0.03376870	          0.00000000	          0.00000000	          0.00000000	          0.00000000	
          0.43946013	         -5.25568251	        909.13995663	         20.00734067	          0.00004589	          0.00000000	          0.00004128	          0.00000000	          0.00000000	          0.00000000	          0.00000000	          0.00000000	          0.00000000	          0.00000000	         -0.06299477	          0.00000000	          0.00000000	          0.00000000	          0.00000000	
          0.47326476	         -0.58494350	        915.26122092	         21.62815572	          0.00015582	          0.00000000	          0.00007063	          0.00000000	          0.00000000	          0.00000000	          0.00000000	          0.00000000	          0.00000000	          0.00000000	         -0.10616309	          0.00000000	          0.00000000	          0.00000000	          0.00000000	
          0.50706939	          3.68706813	        918.13251190	         22.87412077	          0.00028556	          0.00000000	          0.00008615	          0.00000000	          0.00000000	          0.00000000	          0.00000000	          0.00000000	          0.00000000	          0.00000000	         -0.12802398	          0.00000000	          0.00000000	          0.00000000	          0.00000000	
          0.54087401	          7.75726685	        919.88766246	         22.23773014	          0.00031829	          0.00000000	          0.00007292	          0.00000000	          0.00000000	          0.00000000	          0.00000000	          0.00000000	          0.00000000	          0.00000000	         -0.11049721	          0.00000000	          0.00000000	          0.00000000	          0.00000000	
          0.57467864	         13.47137740	        920.63471192	         20.65355702	          0.00020645	          0.00000000	          0.00003854	          0.00000000	          0.00000000	          0.00000000	          0.00000000	          0.00000000	          0.00000000	          0.00000000	         -0.06203289	          0.00000000	          0.00000000	          0.00000000	          0.00000000	
          0.60848326	         20.57407677	        918.95679243	         18.73581447	          0.00005906	          0.00000000	          0.00000944	          0.00000000	          0.00000000	          0.00000000	          0.00000000	          0.00000000	          0.00000000	          0.00000000	         -0.01644463	          0.00000000	          0.00000000	          0.00000000	          0.00000000	
          0.64228789	         29.01286887	        912.36815593	         16.76865651	          0.00001912	          0.00000000	          0.00000406	          0.00000000	          0.00000000	          0.00000000	          0.00000000	          0.00000000	          0.00000000	          0.00000000	         -0.00670826	          0.00000000	          0.00000000	          0.00000000	          0.00000000	
          0.67609251	         37.44325922	        901.26289760	         14.94835621	          0.00014706	          0.00000000	          0.00003147	          0.00000000	          0.00000000	          0.00000000	          0.00000000	          0.00000000	          0.00000000	          0.00000000	         -0.05064518	          0.00000000	          0.00000000	          0.00000000	          0.00000000	
          0.70989714	         46.33504689	        888.06016577	         13.44832652	          0.00054821	          0.00000000	          0.00009948	          0.00000000	          0.00000000	          0.00000000	          0.00000000	          0.00000000	          0.00000000	          0.00000000	         -0.16864225	          0.00000000	          0.00000000	          0.00000000	          0.00000000	
          0.74370176	         57.07242257	        876.44716728	         12.97727483	          0.00089648	          0.00000000	          0.00013952	          0.00000000	          0.00000000	          0.00000000	          0.00000000	          0.00000000	          0.00000000	          0.00000000	         -0.25777899	          0.00000000	          0.00000000	          0.00000000	          0.00000000	
          0.77750639	         69.68578546	        869.47764764	         12.98230091	          0.00113130	          0.00000000	          0.00015184	          0.00000000	          0.00000000	          0.00000000	          0.00000000	          0.00000000	          0.00000000	          0.00000000	         -0.32049599	          0.00000000	          0.00000000	          0.00000000	          0.00000000	
          0.81131102	         82.30921819	        875.70219430	         14.72584099	          0.00162840	          0.00000000	          0.00018837	          0.00000000	          0.00000000	          0.00000000	          0.00000000	          0.00000000	          0.00000000	          0.00000000	         -0.47750503	          0.00000000	          0.00000000	          0.00000000	          0.00000000	
